<svg width="15" height="14" viewBox="0 0 15 14" fill="none" xmlns="http://www.w3.org/2000/svg">
<path d="M4.03955 11.393L6.18487 13.0535C6.46363 13.3322 7.08176 13.4656 7.50597 13.4656H10.1361C10.9724 13.4656 11.8693 12.8474 12.0754 12.0111L13.7359 6.95694C14.0874 5.98731 13.4571 5.15101 12.4147 5.15101H9.63917C9.22708 5.15101 8.87558 4.7994 8.94831 4.31458L9.2998 2.09668C9.43312 1.47854 9.02102 0.775559 8.40288 0.569513C7.84534 0.363467 7.15449 0.642235 6.87573 1.05433L4.03955 5.28433" fill="white"/>
<path d="M4.03955 11.393L6.18487 13.0535C6.46363 13.3322 7.08176 13.4656 7.50597 13.4656H10.1361C10.9724 13.4656 11.8693 12.8474 12.0754 12.0111L13.7359 6.95694C14.0874 5.98731 13.4571 5.15101 12.4147 5.15101H9.63917C9.22708 5.15101 8.87558 4.7994 8.94831 4.31458L9.2998 2.09668C9.43312 1.47854 9.02102 0.775559 8.40288 0.569513C7.84534 0.363467 7.15449 0.642235 6.87573 1.05433L4.03955 5.28433" stroke="white" stroke-miterlimit="10"/>
<path d="M0.5 11.3929V4.60566C0.5 3.63604 0.912092 3.28442 1.88172 3.28442H2.57258C3.54221 3.28442 3.9543 3.63604 3.9543 4.60566V11.3929C3.9543 12.3626 3.54221 12.7141 2.57258 12.7141H1.88172C0.912092 12.7141 0.5 12.3747 0.5 11.3929Z" fill="white" stroke="white" stroke-linecap="round" stroke-linejoin="round"/>
</svg>
